<svg width="50" height="50" viewBox="0 0 50 50" fill="none" xmlns="http://www.w3.org/2000/svg">
<path d="M13.5646 27.0833C13.2127 27.0851 12.8613 27.1095 12.5125 27.1562C12.1417 27.2042 11.8021 27.3021 11.4937 27.4542C11.1933 27.6013 10.9299 27.8142 10.7229 28.0771C10.5187 28.3396 10.4167 28.6896 10.4167 29.1187C10.4167 29.9167 10.6687 30.4729 11.175 30.7854C11.6792 31.0938 12.3646 31.25 13.2333 31.25C13.7542 31.25 14.2167 31.2375 14.6187 31.2146C15.0208 31.1896 15.3562 31.1479 15.625 31.0833V27.3708C15.3792 27.266 15.1196 27.1972 14.8542 27.1667C14.4271 27.1059 13.9959 27.078 13.5646 27.0833ZM40.1771 32.8542C39.8208 32.2625 39.4062 31.6583 38.9417 31.0417C38.4785 30.4284 37.9899 29.8348 37.4771 29.2625C36.9868 28.7147 36.468 28.1932 35.9229 27.7C35.4498 27.2677 34.9472 26.8688 34.4187 26.5062V32.8562H32.05V13.5542L34.4187 13.1479V25.1854L35.7708 23.8396C36.2625 23.3479 36.7458 22.85 37.2208 22.3417C37.6979 21.8333 38.1479 21.3458 38.5708 20.8812C38.9958 20.4167 39.3625 20.0063 39.6667 19.65H42.4458C42.0542 20.0729 41.6292 20.5375 41.1708 21.0458C40.7125 21.5542 40.2375 22.0667 39.7437 22.5812C39.25 23.1 38.7542 23.6167 38.2542 24.1313L36.8396 25.5917C37.3479 25.9833 37.8875 26.4646 38.4583 27.0396C39.0271 27.6146 39.5854 28.2375 40.1396 28.9062C40.6917 29.575 41.2125 30.2521 41.7062 30.9396C42.1979 31.625 42.6146 32.2625 42.9562 32.8562L40.1771 32.8542ZM28.1896 32.2208C27.2812 32.8458 25.9875 33.1604 24.3062 33.1604C23.1333 33.1604 22.2167 33.0646 21.5542 32.8688C21.0968 32.7433 20.6462 32.5945 20.2042 32.4229L20.6375 30.3937C20.9083 30.4958 21.3417 30.6458 21.9354 30.8521C22.5312 31.0521 23.3208 31.1542 24.3062 31.1542C25.2729 31.1542 25.9917 31.0292 26.4583 30.7729C26.925 30.5187 27.1583 30.1125 27.1583 29.5542C27.1664 29.2866 27.1077 29.0212 26.9877 28.7819C26.8677 28.5426 26.6901 28.3369 26.4708 28.1833C26.0125 27.8437 25.2562 27.4646 24.2042 27.0396C23.7101 26.8443 23.2211 26.6366 22.7375 26.4167C22.302 26.2246 21.8953 25.9729 21.5292 25.6687C21.1893 25.3803 20.9115 25.026 20.7125 24.6271C20.4955 24.1583 20.3907 23.6455 20.4062 23.1292C20.4062 21.9625 20.8396 21.0333 21.7062 20.3479C22.5729 19.6604 23.7542 19.3187 25.2479 19.3187C25.6208 19.3187 25.9958 19.3396 26.3687 19.3833C26.7437 19.425 27.0917 19.475 27.4146 19.5354C27.898 19.6232 28.3743 19.7464 28.8396 19.9042L28.4062 21.9354C28.0232 21.7549 27.6224 21.6145 27.2104 21.5167C26.568 21.3617 25.9086 21.2889 25.2479 21.3C24.5854 21.3 24.0083 21.4312 23.5146 21.6937C23.2843 21.8041 23.0915 21.9795 22.96 22.1984C22.8286 22.4173 22.7642 22.6699 22.775 22.925C22.775 23.2146 22.8312 23.4667 22.9417 23.6875C23.0647 23.9226 23.2392 24.127 23.4521 24.2854C23.6812 24.4625 23.9646 24.6271 24.3062 24.7792C24.6437 24.9333 25.0521 25.0917 25.5292 25.2625C26.1542 25.5 26.7167 25.7333 27.2104 25.9604C27.7021 26.1896 28.1229 26.4562 28.4708 26.7604C28.8188 27.0646 29.0875 27.4333 29.2729 27.8646C29.4604 28.2979 29.5542 28.8271 29.5542 29.4542C29.5542 30.6729 29.1 31.5958 28.1896 32.2208ZM17.8354 32.6271L16.9812 32.7687C16.6167 32.8271 16.2042 32.8833 15.7437 32.9333C15.2854 32.9833 14.7896 33.0292 14.2542 33.0729C13.7208 33.1146 13.1896 33.1354 12.6625 33.1354C11.9683 33.1413 11.2759 33.0644 10.6 32.9062C10.0138 32.7736 9.45899 32.5281 8.96667 32.1833C8.50365 31.8466 8.13551 31.3959 7.89792 30.875C7.64375 30.3333 7.51458 29.6812 7.51458 28.9208C7.51458 28.1917 7.6625 27.5667 7.96042 27.0396C8.25833 26.5167 8.6625 26.0917 9.17292 25.7687C9.72259 25.4326 10.3257 25.193 10.9562 25.0604C11.6588 24.9053 12.3764 24.8285 13.0958 24.8312C13.5871 24.8359 14.0771 24.8826 14.5604 24.9708C14.8794 25.0291 15.1975 25.0923 15.5146 25.1604V24.5C15.5146 24.1104 15.4729 23.725 15.3896 23.3458C15.3105 22.9783 15.1542 22.6318 14.9312 22.3292C14.6934 22.0202 14.3818 21.776 14.025 21.6187C13.6417 21.4396 13.1458 21.35 12.5354 21.35C11.7542 21.35 11.0687 21.4062 10.4833 21.5167C10.0361 21.5893 9.5967 21.7037 9.17083 21.8583L8.89167 19.9042C9.19792 19.7687 9.70625 19.6375 10.4208 19.5083C11.1333 19.3833 11.9062 19.3187 12.7396 19.3187C13.6896 19.3187 14.4917 19.4437 15.1458 19.6875C15.8 19.9333 16.3271 20.2812 16.725 20.7292C17.125 21.1771 17.4083 21.7104 17.5792 22.3292C17.75 22.9479 17.8333 23.6292 17.8333 24.3729L17.8354 32.6271ZM50 24.9188C50 11.1583 38.8062 0 25 0C11.1937 0 0 11.1583 0 24.9188C0 38.6833 11.1937 49.8417 25 49.8417C29.5354 49.8417 33.7854 48.6333 37.4542 46.5271L50 50L46.85 37.0292C48.9202 33.3289 50.0049 29.1588 50 24.9188Z" fill="black"/>
</svg>
