<svg width="90" height="90" viewBox="0 0 90 90" fill="none" xmlns="http://www.w3.org/2000/svg">
<path d="M50.625 59.7656C50.625 60.8163 50.2951 61.8435 49.677 62.7171C49.0589 63.5907 48.1804 64.2716 47.1526 64.6737C46.1248 65.0758 44.9938 65.181 43.9026 64.976C42.8115 64.7711 41.8092 64.2651 41.0225 63.5221C40.2359 62.7792 39.7001 61.8326 39.4831 60.802C39.2661 59.7715 39.3775 58.7034 39.8032 57.7326C40.2289 56.7619 40.9499 55.9322 41.8749 55.3484C42.8 54.7647 43.8875 54.4531 45 54.4531C46.4919 54.4531 47.9226 55.0128 48.9775 56.0091C50.0324 57.0054 50.625 58.3567 50.625 59.7656ZM82.9688 42.5C82.9688 49.5923 80.7419 56.5254 76.5699 62.4224C72.3978 68.3194 66.4679 72.9156 59.53 75.6297C52.5921 78.3439 44.9579 79.054 37.5927 77.6703C30.2275 76.2867 23.4621 72.8714 18.1521 67.8564C12.842 62.8414 9.22586 56.4519 7.76083 49.4958C6.29579 42.5398 7.0477 35.3297 9.92147 28.7772C12.7952 22.2248 17.6618 16.6243 23.9057 12.684C30.1496 8.74374 37.4905 6.64063 45 6.64062C55.0665 6.65117 64.7175 10.4326 71.8356 17.1552C78.9537 23.8779 82.9576 32.9927 82.9688 42.5ZM74.5313 42.5C74.5313 36.9838 72.7993 31.5914 69.5544 27.0048C66.3094 22.4182 61.6973 18.8434 56.3011 16.7324C50.905 14.6214 44.9673 14.0691 39.2388 15.1453C33.5103 16.2215 28.2483 18.8778 24.1183 22.7783C19.9882 26.6789 17.1757 31.6486 16.0362 37.0588C14.8967 42.4691 15.4815 48.0769 17.7167 53.1733C19.9519 58.2696 23.7369 62.6255 28.5933 65.6902C33.4497 68.7549 39.1593 70.3906 45 70.3906C52.8296 70.3827 60.3361 67.4417 65.8725 62.2129C71.4089 56.9841 74.5229 49.8946 74.5313 42.5ZM45 21.25C36.4711 21.25 29.5313 27.2066 29.5313 34.5312V35.8594C29.5313 36.9161 29.9757 37.9295 30.7669 38.6768C31.5581 39.424 32.6311 39.8437 33.75 39.8438C34.8689 39.8437 35.942 39.424 36.7331 38.6768C37.5243 37.9295 37.9688 36.9161 37.9688 35.8594V34.5312C37.9688 31.6027 41.1328 29.2188 45 29.2188C48.8672 29.2188 52.0313 31.6027 52.0313 34.5312C52.0313 37.4598 48.8672 39.8438 45 39.8438C43.8811 39.8438 42.8081 40.2635 42.0169 41.0107C41.2257 41.758 40.7813 42.7714 40.7813 43.8281V46.4844C40.7788 47.4688 41.1622 48.4192 41.8576 49.1524C42.553 49.8856 43.5112 50.3498 44.5475 50.4554C45.5838 50.561 46.6248 50.3005 47.4698 49.7242C48.3148 49.1479 48.904 48.2966 49.1238 47.3344C55.6559 45.7805 60.4688 40.6307 60.4688 34.5312C60.4688 27.2066 53.5289 21.25 45 21.25Z" fill="black"/>
</svg>
